Coordinates
version=1
nRows=22
nColumns=21
inDegrees=yes

Units are S.I. units (second, meters, Newtons, ...)
If the header above contains a line with 'inDegrees', this indicates whether rotational values are in degrees (yes) or radians (no).

endheader
time	sternoclavicular_r2	sternoclavicular_r3	unrotscap_r3	unrotscap_r2	acromioclavicular_r2	acromioclavicular_r3	acromioclavicular_r1	unrothum_r1	unrothum_r3	unrothum_r2	elv_angle	shoulder_elev	shoulder1_r2	shoulder_rot	elbow_flexion	pro_sup	deviation	flexion	wrist_hand_r1	wrist_hand_r3
      5.05050505	     -4.52595947	      1.91698282	     -1.91698282	      4.52595947	     -0.91641473	      7.40614148	      3.32900962	     -3.32900962	     -7.40614148	      0.91641473	    -66.06761759	     18.70226995	     66.06761759	      7.34783440	     77.48771798	      0.00000000	      0.00000000	     -0.00000000	     -0.00000000	      0.00000000
      5.15151515	     -4.28991811	      1.81700684	     -1.81700684	      4.28991811	     -0.86862115	      7.01989062	      3.15539252	     -3.15539252	     -7.01989062	      0.86862115	    -65.90507005	     17.72689461	     65.90507005	      7.26409932	     75.15553198	      0.00000000	      0.00000000	     -0.00000000	     -0.00000000	      0.00000000
      5.25252525	     -4.04451566	      1.71306594	     -1.71306594	      4.04451566	     -0.81893215	      6.61832156	      2.97488999	     -2.97488999	     -6.61832156	      0.81893215	    -65.73139554	     16.71283716	     65.73139554	      7.14857416	     72.76795176	      0.00000000	      0.00000000	     -0.00000000	     -0.00000000	      0.00000000
      5.35353535	     -3.78938798	      1.60500590	     -1.60500590	      3.78938798	     -0.76727398	      6.20083845	      2.78723421	     -2.78723421	     -6.20083845	      0.76727398	    -65.54576196	     15.65859292	     65.54576196	      6.99609363	     70.32384609	      0.00000000	      0.00000000	     -0.00000000	     -0.00000000	      0.00000000
      5.45454545	     -3.52404691	      1.49261994	     -1.49261994	      3.52404691	     -0.71354781	      5.76664244	      2.59206609	     -2.59206609	     -5.76664244	      0.71354781	    -65.34766942	     14.56214466	     65.34766942	      6.80016620	     67.82165965	      0.00000000	      0.00000000	     -0.00000000	     -0.00000000	      0.00000000
      5.55555556	     -3.24787314	      1.37564577	     -1.37564577	      3.24787314	     -0.65762824	      5.31472014	      2.38893013	     -2.38893013	     -5.31472014	      0.65762824	    -65.13743635	     13.42093331	     65.13743635	      6.55254799	     65.25945843	      0.00000000	      0.00000000	     -0.00000000	     -0.00000000	      0.00000000
      5.65656566	     -2.95890914	      1.25325426	     -1.25325426	      2.95890914	     -0.59911891	      4.84186831	      2.17638648	     -2.17638648	     -4.84186831	      0.59911891	    -64.93304055	     12.22686988	     64.93304055	      6.23146559	     62.63175616	      0.00000000	      0.00000000	     -0.00000000	     -0.00000000	      0.00000000
      5.75757576	     -2.65791153	      1.12576588	     -1.12576588	      2.65791153	     -0.53817302	      4.34932503	      1.95499167	     -1.95499167	     -4.34932503	      0.53817302	    -64.71253534	     10.98308088	     64.71253534	      5.84042341	     59.94079982	      0.00000000	      0.00000000	     -0.00000000	     -0.00000000	      0.00000000
      5.85858586	     -2.34334194	      0.99252905	     -0.99252905	      2.34334194	     -0.47447908	      3.83457299	      1.72361417	     -1.72361417	     -3.83457299	      0.47447908	    -64.47524193	      9.68320945	     64.47524193	      5.36052512	     57.18126879	      0.00000000	      0.00000000	     -0.00000000	     -0.00000000	      0.00000000
      5.95959596	     -2.01412646	      0.85308891	     -0.85308891	      2.01412646	     -0.40781964	      3.29585486	      1.48146407	     -1.48146407	     -3.29585486	      0.40781964	    -64.22563836	      8.32281795	     64.22563836	      4.76938377	     54.34957109	      0.00000000	      0.00000000	     -0.00000000	     -0.00000000	      0.00000000
      6.06060606	     -1.66894637	      0.70688691	     -0.70688691	      1.66894637	     -0.33792769	      2.73101273	      1.22757143	     -1.22757143	     -2.73101273	      0.33792769	    -63.98119416	      6.89645715	     63.98119416	      4.02856086	     51.45030115	      0.00000000	      0.00000000	     -0.00000000	     -0.00000000	      0.00000000
      6.16161616	     -1.29648836	      0.54913128	     -0.54913128	      1.29648836	     -0.26251252	      2.12153385	      0.95361487	     -0.95361487	     -2.12153385	      0.26251252	    -63.77060225	      5.35737792	     63.77060225	      3.08039629	     48.42006728	      0.00000000	      0.00000000	     -0.00000000	     -0.00000000	      0.00000000
      6.26262626	     -0.90280012	      0.38238352	     -0.38238352	      0.90280012	     -0.18279866	      1.47731447	      0.66404269	     -0.66404269	     -1.47731447	      0.18279866	    -63.63722925	      3.73057064	     63.63722925	      1.87462938	     45.33279573	      0.00000000	      0.00000000	     -0.00000000	     -0.00000000	      0.00000000
      6.36363636	     -0.49775543	      0.21082571	     -0.21082571	      0.49775543	     -0.10078535	      0.81451173	      0.36611742	     -0.36611742	     -0.81451173	      0.10078535	    -61.61647498	      2.05683599	     61.61647498	      0.58618409	     42.14697979	      0.00000000	      0.00000000	     -0.00000000	     -0.00000000	      0.00000000
      6.46464646	     -0.09320203	      0.03947598	     -0.03947598	      0.09320203	     -0.01887152	      0.15251295	      0.06855352	     -0.06855352	     -0.15251295	      0.01887152	    -60.49004212	      0.38513150	     60.49004212	     -1.15695177	     39.17394034	      0.00000000	      0.00000000	     -0.00000000	     -0.00000000	      0.00000000
      6.56565657	     -0.01423782	      0.00603047	     -0.00603047	      0.01423782	     -0.00288287	      0.02329833	      0.01047244	     -0.01047244	     -0.02329833	      0.00288287	    -60.73271686	      0.05883383	     60.73271686	     -1.32944986	     38.06083153	      0.00000000	      0.00000000	     -0.00000000	     -0.00000000	      0.00000000
      6.66666667	     -0.00763520	      0.00323391	     -0.00323391	      0.00763520	     -0.00154597	      0.01249402	      0.00561597	     -0.00561597	     -0.01249402	      0.00154597	    -59.15612379	      0.03155036	     59.15612379	     -1.09289311	     37.36577263	      0.00000000	      0.00000000	     -0.00000000	     -0.00000000	      0.00000000
      6.76767677	     -0.00533645	      0.00226027	     -0.00226027	      0.00533645	     -0.00108052	      0.00873241	      0.00392516	     -0.00392516	     -0.00873241	      0.00108052	    -57.25403407	      0.02205141	     57.25403407	     -0.84090590	     36.73467637	      0.00000000	      0.00000000	     -0.00000000	     -0.00000000	      0.00000000
      6.86868687	     -0.00385642	      0.00163340	     -0.00163340	      0.00385642	     -0.00078085	      0.00631052	      0.00283654	     -0.00283654	     -0.00631052	      0.00078085	    -56.16557737	      0.01593557	     56.16557737	     -0.60093399	     36.14652695	      0.00000000	      0.00000000	     -0.00000000	     -0.00000000	      0.00000000
      6.96969697	     -0.00343386	      0.00145442	     -0.00145442	      0.00343386	     -0.00069529	      0.00561906	      0.00252573	     -0.00252573	     -0.00561906	      0.00069529	    -54.98749729	      0.01418948	     54.98749729	     -0.36251545	     35.60178715	      0.00000000	      0.00000000	     -0.00000000	     -0.00000000	      0.00000000
      7.07070707	     -0.00306042	      0.00129625	     -0.00129625	      0.00306042	     -0.00061967	      0.00500797	      0.00225105	     -0.00225105	     -0.00500797	      0.00061967	    -53.18879393	      0.01264632	     53.18879393	     -0.11923299	     35.09180707	      0.00000000	      0.00000000	     -0.00000000	     -0.00000000	      0.00000000
      7.17171717	     -0.00268162	      0.00113581	     -0.00113581	      0.00268162	     -0.00054297	      0.00438811	      0.00197243	     -0.00197243	     -0.00438811	      0.00054297	    -53.14097290	      0.01108103	     53.14097290	      0.09598730	     34.61699889	      0.00000000	      0.00000000	     -0.00000000	     -0.00000000	      0.00000000
